<svg width="258" height="51" fill="none" xmlns="http://www.w3.org/2000/svg"><path d="M7.879 32.594c0 3.389.804 6.047 2.414 7.974 1.61 1.927 3.833 2.891 6.671 2.891 1.229 0 2.277-.053 3.145-.159a21.196 21.196 0 0 0 2.129-.35V23.89c-.678-.466-1.578-.9-2.7-1.303a10.558 10.558 0 0 0-3.59-.603c-2.796 0-4.84.953-6.132 2.859-1.292 1.906-1.937 4.49-1.937 7.751zm22.047 15.694c-1.525.466-3.442.89-5.75 1.27a44.622 44.622 0 0 1-7.275.572c-2.627 0-4.977-.402-7.053-1.207-2.075-.805-3.844-1.959-5.305-3.463-1.461-1.503-2.584-3.325-3.368-5.464C.392 37.857 0 35.453 0 32.785c0-2.626.328-5.009.985-7.148.656-2.14 1.62-3.971 2.89-5.496a12.886 12.886 0 0 1 4.639-3.526c1.821-.826 3.918-1.24 6.29-1.24 1.61 0 3.029.191 4.257.573 1.228.38 2.287.805 3.177 1.27V1.271L29.926 0v48.288zm7.942-15.44c0-2.922.434-5.485 1.302-7.688.869-2.202 2.023-4.034 3.463-5.495a14.332 14.332 0 0 1 4.956-3.304 15.345 15.345 0 0 1 5.718-1.112c4.575 0 8.143 1.419 10.706 4.257 2.563 2.838 3.844 7.073 3.844 12.707 0 .424-.01.9-.032 1.43-.02.53-.053 1.006-.095 1.43H45.81c.212 2.668 1.154 4.733 2.827 6.194 1.673 1.461 4.098 2.192 7.275 2.192 1.864 0 3.569-.17 5.115-.508 1.546-.34 2.764-.7 3.653-1.08l1.017 6.29c-.424.212-1.006.434-1.748.667-.74.233-1.588.445-2.54.635-.954.19-1.981.35-3.082.477a29.35 29.35 0 0 1-3.368.19c-2.923 0-5.464-.434-7.624-1.302-2.16-.869-3.94-2.076-5.337-3.622-1.398-1.546-2.436-3.367-3.114-5.464-.677-2.097-1.016-4.395-1.016-6.894zm22.301-3.43c0-1.06-.148-2.066-.445-3.019-.296-.953-.73-1.779-1.302-2.477a6.16 6.16 0 0 0-2.097-1.652c-.826-.403-1.81-.604-2.954-.604-1.186 0-2.224.222-3.114.667a7.097 7.097 0 0 0-2.255 1.747 7.987 7.987 0 0 0-1.43 2.478 13.415 13.415 0 0 0-.699 2.86H60.17zm24.335 19.886c-2.118-4.363-4.29-9.371-6.513-15.026-2.224-5.655-4.246-11.723-6.068-18.203h8.197a180.351 180.351 0 0 0 1.62 6.004 185.444 185.444 0 0 0 4.13 12.644c.74 2.012 1.43 3.822 2.064 5.432a181.2 181.2 0 0 0 2.034-5.432 248.354 248.354 0 0 0 4.13-12.644c.635-2.14 1.186-4.14 1.651-6.004h7.943c-1.822 6.48-3.844 12.548-6.068 18.203-2.224 5.655-4.395 10.663-6.513 15.026h-6.607zm45.873-37.995c-4.532 0-7.995 1.409-10.388 4.226s-3.59 6.724-3.59 11.722c0 2.372.286 4.543.858 6.513.571 1.97 1.419 3.653 2.541 5.05 1.123 1.399 2.52 2.49 4.194 3.273 1.673.784 3.632 1.175 5.877 1.175 1.397 0 2.605-.053 3.621-.159 1.017-.105 1.822-.243 2.415-.413v-15.82h8.005v21.158c-1.101.423-2.965.89-5.591 1.397-2.626.509-5.655.763-9.086.763-3.177 0-6.078-.508-8.704-1.525-2.626-1.017-4.861-2.5-6.703-4.448-1.843-1.948-3.272-4.341-4.289-7.18-1.017-2.837-1.525-6.099-1.525-9.784 0-3.685.561-6.947 1.684-9.785 1.122-2.837 2.658-5.241 4.606-7.21a19.382 19.382 0 0 1 6.862-4.48c2.626-1.017 5.422-1.525 8.387-1.525 2.033 0 3.844.138 5.432.413 1.589.275 2.955.582 4.098.921 1.144.34 2.087.7 2.828 1.08.741.382 1.26.657 1.556.826l-2.414 6.545c-1.271-.763-2.848-1.409-4.733-1.938a21.872 21.872 0 0 0-5.941-.794zM171.739 23c-.635-.212-1.514-.434-2.637-.667-1.122-.233-2.425-.35-3.907-.35-.847 0-1.747.085-2.7.255-.953.17-1.621.317-2.002.445v26.621h-7.688v-31.64c1.483-.552 3.336-1.07 5.56-1.558 2.224-.487 4.691-.73 7.402-.73.508 0 1.101.032 1.779.095.678.064 1.355.148 2.033.254.678.106 1.334.233 1.97.382.635.148 1.143.285 1.524.413L171.739 23zm18.362 20.904c2.372 0 4.173-.127 5.401-.382V35.01c-.424-.127-1.038-.255-1.843-.382a17.162 17.162 0 0 0-2.668-.19c-.847 0-1.705.063-2.573.19a8.014 8.014 0 0 0-2.351.7 4.266 4.266 0 0 0-1.684 1.429c-.424.614-.635 1.387-.635 2.319 0 1.821.571 3.081 1.715 3.78 1.144.7 2.69 1.049 4.638 1.049zm-.635-28.655c2.541 0 4.68.317 6.417.953 1.737.635 3.124 1.525 4.162 2.668 1.038 1.144 1.779 2.531 2.224 4.162.444 1.63.667 3.42.667 5.369v20.14c-1.186.255-2.976.562-5.369.922s-5.094.54-8.101.54c-1.991 0-3.812-.19-5.464-.572-1.652-.38-3.061-.995-4.225-1.842-1.165-.847-2.076-1.949-2.732-3.304-.657-1.355-.985-3.029-.985-5.02 0-1.906.37-3.515 1.112-4.828a9.12 9.12 0 0 1 3.018-3.209c1.27-.826 2.742-1.419 4.415-1.779 1.673-.36 3.421-.54 5.242-.54.847 0 1.737.053 2.669.159.932.106 1.927.286 2.986.54v-1.27a9.94 9.94 0 0 0-.318-2.542 5.262 5.262 0 0 0-1.112-2.129c-.529-.614-1.228-1.09-2.096-1.43-.869-.338-1.959-.507-3.273-.507-1.779 0-3.409.127-4.892.38-1.482.255-2.69.551-3.621.89l-.953-6.226c.974-.34 2.393-.678 4.256-1.017 1.864-.339 3.855-.508 5.973-.508zm41.807 16.583c0-3.474-.434-5.983-1.303-7.53-.868-1.545-2.488-2.318-4.86-2.318-.847 0-1.779.063-2.796.19a61.957 61.957 0 0 0-2.287.318v26.812h-7.688v-32.15c1.483-.423 3.42-.825 5.814-1.206 2.393-.382 4.924-.572 7.592-.572 2.288 0 4.162.296 5.623.89 1.462.592 2.679 1.376 3.654 2.35a15 15 0 0 1 1.779-1.08c.72-.381 1.524-.73 2.414-1.048.89-.318 1.832-.583 2.827-.794a14.47 14.47 0 0 1 3.018-.318c2.584 0 4.713.37 6.386 1.112 1.673.741 2.986 1.779 3.939 3.113.953 1.334 1.61 2.944 1.97 4.829.36 1.885.54 3.95.54 6.195v18.68h-7.688V31.831c0-3.474-.424-5.983-1.271-7.53-.847-1.545-2.478-2.318-4.892-2.318-1.229 0-2.393.2-3.495.603-1.101.403-1.927.794-2.478 1.176a16.93 16.93 0 0 1 .699 3.367c.127 1.186.191 2.457.191 3.812v18.362h-7.688V31.832z" fill="#191414"/></svg>